<svg width="325" height="50" viewBox="0 0 325 50" fill="none" xmlns="http://www.w3.org/2000/svg">
<path d="M3.64319 42.6096C2.76319 42.6096 1.93599 42.3632 1.16159 41.8704C0.387191 41.3776 -8.82318e-06 40.744 -8.82318e-06 39.9696C-8.82318e-06 39.5824 0.0879912 39.1072 0.263991 38.544C0.439991 38.016 0.598391 37.5232 0.739191 37.0656C1.86559 33.616 2.92159 30.3952 3.90719 27.4032C4.89279 24.4112 5.87839 21.5072 6.86399 18.6912C7.84959 15.8752 8.88799 13.0592 9.97919 10.2432C11.1056 7.4272 12.3552 4.488 13.728 1.4256C12.3904 1.672 11.1936 2.0416 10.1376 2.5344C9.11679 2.992 8.28959 3.4144 7.65599 3.8016C7.02239 4.1536 6.59999 4.3296 6.38879 4.3296C6.24799 4.3296 6.03679 4.2592 5.75519 4.1184C5.50879 3.9424 5.27999 3.7488 5.06879 3.5376C4.85759 3.2912 4.75199 3.08 4.75199 2.904C5.66719 2.5168 6.74079 2.0944 7.97279 1.6368C9.23999 1.1792 10.5952 0.792003 12.0384 0.475203C13.4816 0.158403 14.9424 2.76184e-06 16.4208 2.76184e-06C17.9696 2.76184e-06 19.536 0.211203 21.12 0.633604C22.7392 1.056 24.2176 1.7072 25.5552 2.5872C26.8928 3.432 27.9664 4.488 28.776 5.7552C29.5856 7.0224 29.9904 8.5008 29.9904 10.1904C29.9904 12.0208 29.5856 13.6048 28.776 14.9424C27.9664 16.2448 26.8928 17.3536 25.5552 18.2688C24.2176 19.1488 22.7744 19.8704 21.2256 20.4336C19.6768 20.9616 18.128 21.384 16.5792 21.7008C15.0656 21.9824 13.7104 22.176 12.5136 22.2816C11.3168 22.352 10.4368 22.3872 9.87359 22.3872H9.34559C8.28959 26.0128 7.26879 29.5856 6.28319 33.1056C5.33279 36.6256 4.45279 39.7936 3.64319 42.6096ZM9.55679 21.5424C11.4928 21.4368 13.4464 21.12 15.4176 20.592C17.424 20.064 19.2544 19.3072 20.9088 18.3216C22.5632 17.3008 23.9008 16.0512 24.9216 14.5728C25.9424 13.0592 26.4528 11.2992 26.4528 9.2928C26.4528 7.392 25.9952 5.8432 25.08 4.6464C24.2 3.4496 23.0208 2.5696 21.5424 2.0064C20.0992 1.408 18.5504 1.1088 16.896 1.1088C15.5936 3.6784 14.3264 6.7584 13.0944 10.3488C11.8624 13.9392 10.6832 17.6704 9.55679 21.5424ZM29.7598 40.3392C27.6126 40.3392 25.9934 39.7408 24.9022 38.544C23.8462 37.3824 23.3182 35.9392 23.3182 34.2144C23.3182 32.6304 23.7054 30.9584 24.4798 29.1984C25.2894 27.4384 26.3454 25.784 27.6478 24.2352C28.9854 22.6864 30.4462 21.4368 32.0302 20.4864C33.6142 19.5008 35.1806 19.008 36.7294 19.008C37.539 19.008 38.2782 19.2192 38.947 19.6416C39.651 20.064 40.003 20.9264 40.003 22.2288C40.003 23.5664 39.5982 24.8336 38.7886 26.0304C38.0142 27.192 36.9758 28.2304 35.6734 29.1456C34.4062 30.0608 32.9982 30.8176 31.4494 31.416C29.9358 31.9792 28.4222 32.3312 26.9086 32.472C26.8382 32.824 26.7854 33.1584 26.7502 33.4752C26.715 33.792 26.6974 34.0912 26.6974 34.3728C26.6974 34.9008 26.7502 35.4288 26.8558 35.9568C26.9966 36.4848 27.2254 36.9776 27.5422 37.4352C27.859 37.8576 28.2814 38.192 28.8094 38.4384C29.3726 38.6848 30.059 38.808 30.8686 38.808C32.3822 38.808 33.8782 38.3856 35.3566 37.5408C36.835 36.6608 38.2078 35.5168 39.475 34.1088C40.7422 32.7008 41.8158 31.152 42.6958 29.4624L43.3294 29.9376C42.379 32.0496 41.1646 33.88 39.6862 35.4288C38.243 36.9776 36.659 38.1744 34.9342 39.0192C33.2446 39.8992 31.5198 40.3392 29.7598 40.3392ZM27.1726 31.4688C28.123 31.152 29.1966 30.6944 30.3934 30.096C31.5902 29.4624 32.7342 28.7232 33.8254 27.8784C34.9518 27.0336 35.867 26.1008 36.571 25.08C37.3102 24.0592 37.6798 22.9856 37.6798 21.8592C37.6798 21.472 37.6094 21.1728 37.4686 20.9616C37.3278 20.7504 37.0286 20.6448 36.571 20.6448C35.7262 20.6448 34.8286 20.9792 33.8782 21.648C32.9278 22.2816 32.0126 23.1264 31.1326 24.1824C30.2526 25.2384 29.4606 26.4 28.7566 27.6672C28.0526 28.9344 27.5246 30.2016 27.1726 31.4688ZM44.7554 39.6C44.157 39.6 43.541 39.4416 42.9074 39.1248C42.309 38.8432 41.8162 38.368 41.429 37.6992C41.0066 37.0304 40.7954 36.1856 40.7954 35.1648C40.7954 34.0032 41.077 32.7008 41.6402 31.2576C42.2034 29.8144 42.9602 28.3888 43.9106 26.9808C44.861 25.5376 45.9522 24.2176 47.1842 23.0208C48.4162 21.7888 49.701 20.8208 51.0386 20.1168C52.3762 19.3776 53.6962 19.008 54.9986 19.008C55.7378 19.008 56.301 19.1488 56.6882 19.4304C57.1106 19.6768 57.3218 20.0816 57.3218 20.6448C57.3218 20.7856 57.3042 20.9088 57.269 21.0144C57.269 21.12 57.2514 21.2432 57.2162 21.384C57.0402 21.1024 56.7762 20.9088 56.4242 20.8032C56.1074 20.6624 55.7026 20.592 55.2098 20.592C54.0834 20.592 52.9746 20.944 51.8834 21.648C50.8274 22.3168 49.8418 23.2144 48.9266 24.3408C48.0466 25.432 47.2722 26.6112 46.6034 27.8784C45.9346 29.1456 45.4066 30.3776 45.0194 31.5744C44.6674 32.736 44.4914 33.7216 44.4914 34.5312C44.4914 35.3056 44.6674 35.9216 45.0194 36.3792C45.3714 36.8368 45.829 37.0656 46.3922 37.0656C47.3426 37.0656 48.4866 36.4672 49.8242 35.2704C51.197 34.0736 52.5874 32.384 53.9954 30.2016C55.4034 28.0192 56.6706 25.4672 57.797 22.5456C58.5714 20.504 59.3634 18.4272 60.173 16.3152C61.0178 14.2032 61.8626 12.1792 62.7074 10.2432C63.5522 8.272 64.3618 6.5296 65.1362 5.016C65.9458 3.4672 66.7026 2.2528 67.4066 1.3728C68.1458 0.457603 68.797 2.76184e-06 69.3602 2.76184e-06C69.6418 2.76184e-06 69.8882 0.123202 70.0994 0.369601C70.3106 0.580803 70.4162 0.862403 70.4162 1.2144C70.4162 1.7776 70.117 2.7456 69.5186 4.1184C68.9554 5.456 68.1986 7.0752 67.2482 8.976C66.333 10.8416 65.365 12.8832 64.3442 15.1008C63.3234 17.3184 62.3378 19.5712 61.3874 21.8592C60.4722 24.1472 59.7154 26.3648 59.117 28.512C58.5538 30.624 58.2722 32.56 58.2722 34.32C58.2722 35.3056 58.325 36.0448 58.4306 36.5376C58.5362 37.0304 58.8882 37.2768 59.4866 37.2768C60.2258 37.2768 61.0882 36.96 62.0738 36.3264C63.0594 35.6928 64.045 34.7952 65.0306 33.6336C66.0162 32.472 66.8786 31.0816 67.6178 29.4624L68.2514 29.9376C67.5826 31.7328 66.6674 33.352 65.5058 34.7952C64.3442 36.2032 63.0946 37.312 61.757 38.1216C60.4546 38.9664 59.205 39.3888 58.0082 39.3888C56.7058 39.3888 55.7906 38.9488 55.2626 38.0688C54.7698 37.224 54.5234 36.344 54.5234 35.4288C54.5234 34.8304 54.6114 34.0384 54.7874 33.0528C54.9634 32.0672 55.2098 30.976 55.5266 29.7792C54.4002 31.6448 53.2034 33.3344 51.9362 34.848C50.669 36.3264 49.4194 37.488 48.1874 38.3328C46.9906 39.1776 45.8466 39.6 44.7554 39.6ZM69.1309 40.4976C68.0397 40.4976 67.1245 40.128 66.3853 39.3888C65.6109 38.6848 65.2237 37.5936 65.2237 36.1152C65.2237 34.848 65.5053 33.4928 66.0685 32.0496C66.6317 30.5712 67.4061 29.128 68.3917 27.72C69.3773 26.2768 70.4861 24.9744 71.7181 23.8128C72.9853 22.616 74.3053 21.6656 75.6781 20.9616C77.0861 20.2576 78.4765 19.9056 79.8493 19.9056C81.2221 19.9056 82.3661 20.2752 83.2813 21.0144C84.1965 21.7184 84.6541 22.6688 84.6541 23.8656C84.6541 24.7456 84.4077 25.344 83.9149 25.6608C83.4573 25.9776 82.8413 26.136 82.0669 26.136C82.1373 25.8544 82.1901 25.5552 82.2253 25.2384C82.2957 24.8864 82.3309 24.5696 82.3309 24.288C82.3309 23.4784 82.1373 22.792 81.7501 22.2288C81.3629 21.6304 80.6941 21.3312 79.7437 21.3312C78.7581 21.3312 77.7549 21.6832 76.7341 22.3872C75.7133 23.056 74.7277 23.9712 73.7773 25.1328C72.8269 26.2592 71.9821 27.4912 71.2429 28.8288C70.5037 30.1664 69.9229 31.4864 69.5005 32.7888C69.0781 34.0912 68.8669 35.2528 68.8669 36.2736C68.8669 37.6464 69.3421 38.3328 70.2925 38.3328C71.1021 38.3328 71.9821 37.9632 72.9325 37.224C73.8829 36.4496 74.8509 35.4816 75.8365 34.32C76.8573 33.1232 77.8253 31.8912 78.7405 30.624C79.6557 29.3568 80.4653 28.1952 81.1693 27.1392C81.3101 26.928 81.3981 26.8224 81.4333 26.8224C81.6445 26.8576 81.9085 26.928 82.2253 27.0336C82.5773 27.1392 82.8765 27.28 83.1229 27.456C83.3693 27.632 83.4925 27.8608 83.4925 28.1424C83.4925 28.4592 83.3341 28.8992 83.0173 29.4624C82.7005 29.9904 82.3485 30.6064 81.9613 31.3104C81.5741 32.0144 81.2221 32.736 80.9053 33.4752C80.5885 34.1792 80.4301 34.848 80.4301 35.4816C80.4301 36.0096 80.5709 36.5376 80.8525 37.0656C81.1341 37.5584 81.5917 37.8048 82.2253 37.8048C83.1757 37.8048 84.4253 37.1184 85.9741 35.7456C87.5229 34.3376 89.0893 32.2432 90.6733 29.4624L91.2013 29.9904C90.4621 31.8912 89.5117 33.5632 88.3501 35.0064C87.1885 36.4496 85.9389 37.576 84.6013 38.3856C83.2989 39.1952 82.0141 39.6 80.7469 39.6C79.4445 39.6 78.4765 39.2128 77.8429 38.4384C77.2445 37.664 76.9453 36.8192 76.9453 35.904C76.9453 35.6928 76.9629 35.464 76.9981 35.2176C77.0333 34.936 77.0685 34.6544 77.1037 34.3728C75.5901 36.4144 74.1997 37.9456 72.9325 38.9664C71.7005 39.9872 70.4333 40.4976 69.1309 40.4976ZM95.2429 40.9728C93.5533 40.9728 92.1453 40.4096 91.0189 39.2832C89.8925 38.1568 89.3293 36.4672 89.3293 34.2144C89.3293 32.4544 89.6637 30.7472 90.3325 29.0928C91.0365 27.4032 91.9517 25.8896 93.0781 24.552C94.2045 23.2144 95.4541 22.1584 96.8269 21.384C98.1997 20.5744 99.5549 20.1696 100.893 20.1696C102.336 20.1696 103.321 20.592 103.849 21.4368C104.377 22.2816 104.641 23.1616 104.641 24.0768C104.641 25.0976 104.395 25.9952 103.902 26.7696C103.445 27.544 102.811 27.9312 102.001 27.9312C101.403 27.9312 100.893 27.6672 100.47 27.1392C100.998 26.8576 101.456 26.2944 101.843 25.4496C102.23 24.5696 102.424 23.7424 102.424 22.968C102.424 22.5456 102.336 22.2288 102.16 22.0176C102.019 21.7712 101.72 21.648 101.262 21.648C100.312 21.648 99.3261 22.0704 98.3053 22.9152C97.3197 23.76 96.3869 24.8512 95.5069 26.1888C94.6621 27.5264 93.9581 28.9344 93.3949 30.4128C92.8669 31.8912 92.6029 33.2816 92.6029 34.584C92.6029 35.6752 92.8669 36.6784 93.3949 37.5936C93.9229 38.5088 94.9437 38.9664 96.4573 38.9664C97.8653 38.9664 99.2733 38.5792 100.681 37.8048C102.125 37.0304 103.462 35.9216 104.694 34.4784C105.926 33.0352 106.912 31.3456 107.651 29.4096L108.337 29.9376C107.528 32.0496 106.419 33.9504 105.011 35.64C103.603 37.2944 102.054 38.5968 100.365 39.5472C98.6749 40.4976 96.9677 40.9728 95.2429 40.9728ZM99.5197 49.1568C98.4989 49.1568 97.7069 48.9632 97.1437 48.576C96.5805 48.1888 96.2989 47.7488 96.2989 47.256C96.2989 46.9744 96.3869 46.6752 96.5629 46.3584C96.7741 46.0768 97.0733 45.7952 97.4605 45.5136C97.6365 46.3584 97.9357 46.9568 98.3581 47.3088C98.7805 47.696 99.2205 47.8896 99.6781 47.8896C100.347 47.8896 101.016 47.6256 101.685 47.0976C102.353 46.6048 102.917 45.9888 103.374 45.2496C103.832 44.5456 104.061 43.8944 104.061 43.296C104.061 43.0144 103.99 42.7152 103.849 42.3984C103.744 42.1168 103.515 41.976 103.163 41.976C102.705 41.976 102.16 42.152 101.526 42.504C100.893 42.856 100.312 43.208 99.7837 43.56C99.2557 43.9472 98.8861 44.1408 98.6749 44.1408C98.4285 44.1408 98.2349 44.0176 98.0941 43.7712C97.9885 43.56 97.9357 43.3664 97.9357 43.1904C97.9357 43.12 98.0765 42.8736 98.3581 42.4512C98.6749 42.0288 99.0445 41.5184 99.4669 40.92C99.8893 40.3568 100.312 39.7936 100.734 39.2304C101.192 38.7024 101.579 38.2976 101.896 38.016H102.582L99.7837 42.2928C100.171 42.0112 100.646 41.7296 101.209 41.448C101.773 41.1664 102.477 41.0256 103.321 41.0256C104.131 41.0256 104.729 41.2016 105.117 41.5536C105.504 41.9408 105.697 42.504 105.697 43.2432C105.697 44.2288 105.398 45.1792 104.8 46.0944C104.237 47.0096 103.48 47.7488 102.529 48.312C101.614 48.8752 100.611 49.1568 99.5197 49.1568ZM110.304 39.7056C108.79 39.7056 107.717 39.2304 107.083 38.28C106.449 37.3648 106.133 36.2384 106.133 34.9008C106.133 33.8096 106.309 32.6832 106.661 31.5216C107.013 30.36 107.47 29.2688 108.033 28.248C108.632 27.2272 109.283 26.4 109.987 25.7664C110.726 25.1328 111.465 24.816 112.205 24.816C112.381 24.816 112.557 24.8512 112.733 24.9216C112.944 24.9568 113.137 25.0096 113.313 25.08C112.997 25.3616 112.609 25.8896 112.152 26.664C111.729 27.4032 111.325 28.2656 110.937 29.2512C110.55 30.2016 110.216 31.152 109.934 32.1024C109.688 33.0528 109.565 33.8624 109.565 34.5312C109.565 35.5872 109.741 36.3616 110.093 36.8544C110.445 37.312 110.902 37.5408 111.465 37.5408C112.205 37.5408 113.085 37.1536 114.105 36.3792C115.126 35.5696 116.129 34.5488 117.115 33.3168C116.129 32.5072 115.355 31.4512 114.792 30.1488C114.264 28.8112 114 27.456 114 26.0832C114 24.9216 114.193 23.8304 114.581 22.8096C115.003 21.7888 115.601 20.9792 116.376 20.3808C117.15 19.7472 118.083 19.4304 119.174 19.4304C120.617 19.4304 121.585 19.8176 122.078 20.592C122.571 21.3664 122.817 22.3344 122.817 23.496C122.817 24.8688 122.483 26.4 121.814 28.0896C121.145 29.744 120.301 31.3456 119.28 32.8944C119.913 33.2464 120.582 33.4224 121.286 33.4224C121.849 33.4224 122.483 33.3168 123.187 33.1056C123.891 32.8592 124.577 32.4544 125.246 31.8912C125.95 31.328 126.513 30.5712 126.936 29.6208L127.569 30.1488C126.865 31.8032 125.862 32.9824 124.56 33.6864C123.293 34.3552 122.078 34.6896 120.917 34.6896C120.459 34.6896 120.019 34.6544 119.597 34.584C119.174 34.4784 118.769 34.3376 118.382 34.1616C117.185 35.7456 115.865 37.0656 114.422 38.1216C113.014 39.1776 111.641 39.7056 110.304 39.7056ZM118.065 31.944C118.945 30.6416 119.667 29.2864 120.23 27.8784C120.829 26.4352 121.128 25.08 121.128 23.8128C121.128 22.792 120.969 22.0528 120.653 21.5952C120.371 21.1024 120.001 20.856 119.544 20.856C118.84 20.856 118.118 21.3664 117.379 22.3872C116.64 23.408 116.27 24.6928 116.27 26.2416C116.27 27.2624 116.411 28.3008 116.693 29.3568C117.009 30.3776 117.467 31.24 118.065 31.944ZM142.776 39.6C142.177 39.6 141.561 39.4416 140.928 39.1248C140.329 38.8432 139.837 38.368 139.449 37.6992C139.027 37.0304 138.816 36.1856 138.816 35.1648C138.816 34.0032 139.097 32.7008 139.661 31.2576C140.224 29.8144 140.981 28.3888 141.931 26.9808C142.881 25.5376 143.973 24.2176 145.205 23.0208C146.437 21.7888 147.721 20.8208 149.059 20.1168C150.397 19.3776 151.717 19.008 153.019 19.008C153.758 19.008 154.321 19.1488 154.709 19.4304C155.131 19.6768 155.342 20.0816 155.342 20.6448C155.342 20.7856 155.325 20.9088 155.289 21.0144C155.289 21.12 155.272 21.2432 155.237 21.384C155.061 21.1024 154.797 20.9088 154.445 20.8032C154.128 20.6624 153.723 20.592 153.23 20.592C152.104 20.592 150.995 20.944 149.904 21.648C148.848 22.3168 147.862 23.2144 146.947 24.3408C146.067 25.432 145.293 26.6112 144.624 27.8784C143.955 29.1456 143.427 30.3776 143.04 31.5744C142.688 32.736 142.512 33.7216 142.512 34.5312C142.512 35.3056 142.688 35.9216 143.04 36.3792C143.392 36.8368 143.849 37.0656 144.413 37.0656C145.363 37.0656 146.507 36.4672 147.845 35.2704C149.217 34.0736 150.608 32.384 152.016 30.2016C153.424 28.0192 154.691 25.4672 155.817 22.5456C156.592 20.504 157.384 18.4272 158.193 16.3152C159.038 14.2032 159.883 12.1792 160.728 10.2432C161.573 8.272 162.382 6.5296 163.157 5.016C163.966 3.4672 164.723 2.2528 165.427 1.3728C166.166 0.457603 166.817 2.76184e-06 167.381 2.76184e-06C167.662 2.76184e-06 167.909 0.123202 168.12 0.369601C168.331 0.580803 168.437 0.862403 168.437 1.2144C168.437 1.7776 168.137 2.7456 167.539 4.1184C166.976 5.456 166.219 7.0752 165.269 8.976C164.353 10.8416 163.385 12.8832 162.365 15.1008C161.344 17.3184 160.358 19.5712 159.408 21.8592C158.493 24.1472 157.736 26.3648 157.137 28.512C156.574 30.624 156.293 32.56 156.293 34.32C156.293 35.3056 156.345 36.0448 156.451 36.5376C156.557 37.0304 156.909 37.2768 157.507 37.2768C158.246 37.2768 159.109 36.96 160.094 36.3264C161.08 35.6928 162.065 34.7952 163.051 33.6336C164.037 32.472 164.899 31.0816 165.638 29.4624L166.272 29.9376C165.603 31.7328 164.688 33.352 163.526 34.7952C162.365 36.2032 161.115 37.312 159.777 38.1216C158.475 38.9664 157.225 39.3888 156.029 39.3888C154.726 39.3888 153.811 38.9488 153.283 38.0688C152.79 37.224 152.544 36.344 152.544 35.4288C152.544 34.8304 152.632 34.0384 152.808 33.0528C152.984 32.0672 153.23 30.976 153.547 29.7792C152.421 31.6448 151.224 33.3344 149.957 34.848C148.689 36.3264 147.44 37.488 146.208 38.3328C145.011 39.1776 143.867 39.6 142.776 39.6ZM170.319 40.3392C168.172 40.3392 166.553 39.7408 165.462 38.544C164.406 37.3824 163.878 35.9392 163.878 34.2144C163.878 32.6304 164.265 30.9584 165.039 29.1984C165.849 27.4384 166.905 25.784 168.207 24.2352C169.545 22.6864 171.006 21.4368 172.59 20.4864C174.174 19.5008 175.74 19.008 177.289 19.008C178.098 19.008 178.838 19.2192 179.506 19.6416C180.21 20.064 180.562 20.9264 180.562 22.2288C180.562 23.5664 180.158 24.8336 179.348 26.0304C178.574 27.192 177.535 28.2304 176.233 29.1456C174.966 30.0608 173.558 30.8176 172.009 31.416C170.495 31.9792 168.982 32.3312 167.468 32.472C167.398 32.824 167.345 33.1584 167.31 33.4752C167.274 33.792 167.257 34.0912 167.257 34.3728C167.257 34.9008 167.31 35.4288 167.415 35.9568C167.556 36.4848 167.785 36.9776 168.102 37.4352C168.418 37.8576 168.841 38.192 169.369 38.4384C169.932 38.6848 170.618 38.808 171.428 38.808C172.942 38.808 174.438 38.3856 175.916 37.5408C177.394 36.6608 178.767 35.5168 180.034 34.1088C181.302 32.7008 182.375 31.152 183.255 29.4624L183.889 29.9376C182.938 32.0496 181.724 33.88 180.246 35.4288C178.802 36.9776 177.218 38.1744 175.494 39.0192C173.804 39.8992 172.079 40.3392 170.319 40.3392ZM167.732 31.4688C168.682 31.152 169.756 30.6944 170.953 30.096C172.15 29.4624 173.294 28.7232 174.385 27.8784C175.511 27.0336 176.426 26.1008 177.13 25.08C177.87 24.0592 178.239 22.9856 178.239 21.8592C178.239 21.472 178.169 21.1728 178.028 20.9616C177.887 20.7504 177.588 20.6448 177.13 20.6448C176.286 20.6448 175.388 20.9792 174.438 21.648C173.487 22.2816 172.572 23.1264 171.692 24.1824C170.812 25.2384 170.02 26.4 169.316 27.6672C168.612 28.9344 168.084 30.2016 167.732 31.4688ZM200.509 42.6096C199.629 42.6096 198.802 42.3632 198.027 41.8704C197.253 41.3776 196.866 40.744 196.866 39.9696C196.866 39.5824 196.954 39.1072 197.13 38.544C197.306 38.016 197.464 37.5232 197.605 37.0656C198.731 33.616 199.787 30.3952 200.773 27.4032C201.758 24.4112 202.744 21.5072 203.73 18.6912C204.715 15.8752 205.754 13.0592 206.845 10.2432C207.971 7.4272 209.221 4.488 210.594 1.4256C209.256 1.672 208.059 2.0416 207.003 2.5344C205.982 2.992 205.155 3.4144 204.522 3.8016C203.888 4.1536 203.466 4.3296 203.254 4.3296C203.114 4.3296 202.902 4.2592 202.621 4.1184C202.374 3.9424 202.146 3.7488 201.934 3.5376C201.723 3.2912 201.618 3.08 201.618 2.904C202.533 2.5168 203.606 2.0944 204.838 1.6368C206.106 1.1792 207.461 0.792003 208.904 0.475203C210.347 0.158403 211.808 2.76184e-06 213.286 2.76184e-06C214.835 2.76184e-06 216.402 0.211203 217.986 0.633604C219.605 1.056 221.083 1.7072 222.421 2.5872C223.758 3.432 224.832 4.488 225.642 5.7552C226.451 7.0224 226.856 8.5008 226.856 10.1904C226.856 12.0208 226.451 13.6048 225.642 14.9424C224.832 16.2448 223.758 17.3536 222.421 18.2688C221.083 19.1488 219.64 19.8704 218.091 20.4336C216.542 20.9616 214.994 21.384 213.445 21.7008C211.931 21.9824 210.576 22.176 209.379 22.2816C208.182 22.352 207.302 22.3872 206.739 22.3872H206.211C205.155 26.0128 204.134 29.5856 203.149 33.1056C202.198 36.6256 201.318 39.7936 200.509 42.6096ZM206.422 21.5424C208.358 21.4368 210.312 21.12 212.283 20.592C214.29 20.064 216.12 19.3072 217.774 18.3216C219.429 17.3008 220.766 16.0512 221.787 14.5728C222.808 13.0592 223.318 11.2992 223.318 9.2928C223.318 7.392 222.861 5.8432 221.946 4.6464C221.066 3.4496 219.886 2.5696 218.408 2.0064C216.965 1.408 215.416 1.1088 213.762 1.1088C212.459 3.6784 211.192 6.7584 209.96 10.3488C208.728 13.9392 207.549 17.6704 206.422 21.5424ZM226.625 40.3392C224.478 40.3392 222.859 39.7408 221.768 38.544C220.712 37.3824 220.184 35.9392 220.184 34.2144C220.184 32.6304 220.571 30.9584 221.345 29.1984C222.155 27.4384 223.211 25.784 224.513 24.2352C225.851 22.6864 227.312 21.4368 228.896 20.4864C230.48 19.5008 232.046 19.008 233.595 19.008C234.405 19.008 235.144 19.2192 235.813 19.6416C236.517 20.064 236.869 20.9264 236.869 22.2288C236.869 23.5664 236.464 24.8336 235.654 26.0304C234.88 27.192 233.841 28.2304 232.539 29.1456C231.272 30.0608 229.864 30.8176 228.315 31.416C226.801 31.9792 225.288 32.3312 223.774 32.472C223.704 32.824 223.651 33.1584 223.616 33.4752C223.581 33.792 223.563 34.0912 223.563 34.3728C223.563 34.9008 223.616 35.4288 223.721 35.9568C223.862 36.4848 224.091 36.9776 224.408 37.4352C224.725 37.8576 225.147 38.192 225.675 38.4384C226.238 38.6848 226.925 38.808 227.734 38.808C229.248 38.808 230.744 38.3856 232.222 37.5408C233.701 36.6608 235.073 35.5168 236.341 34.1088C237.608 32.7008 238.681 31.152 239.561 29.4624L240.195 29.9376C239.245 32.0496 238.03 33.88 236.552 35.4288C235.109 36.9776 233.525 38.1744 231.8 39.0192C230.11 39.8992 228.385 40.3392 226.625 40.3392ZM224.038 31.4688C224.989 31.152 226.062 30.6944 227.259 30.096C228.456 29.4624 229.6 28.7232 230.691 27.8784C231.817 27.0336 232.733 26.1008 233.437 25.08C234.176 24.0592 234.545 22.9856 234.545 21.8592C234.545 21.472 234.475 21.1728 234.334 20.9616C234.193 20.7504 233.894 20.6448 233.437 20.6448C232.592 20.6448 231.694 20.9792 230.744 21.648C229.793 22.2816 228.878 23.1264 227.998 24.1824C227.118 25.2384 226.326 26.4 225.622 27.6672C224.918 28.9344 224.39 30.2016 224.038 31.4688ZM244.155 40.9728C242.466 40.9728 241.058 40.4096 239.931 39.2832C238.805 38.1568 238.242 36.4672 238.242 34.2144C238.242 32.4544 238.576 30.7472 239.245 29.0928C239.949 27.4032 240.864 25.8896 241.991 24.552C243.117 23.2144 244.367 22.1584 245.739 21.384C247.112 20.5744 248.467 20.1696 249.805 20.1696C251.248 20.1696 252.234 20.592 252.762 21.4368C253.29 22.2816 253.554 23.1616 253.554 24.0768C253.554 25.0976 253.307 25.9952 252.815 26.7696C252.357 27.544 251.723 27.9312 250.914 27.9312C250.315 27.9312 249.805 27.6672 249.383 27.1392C249.911 26.8576 250.368 26.2944 250.755 25.4496C251.143 24.5696 251.336 23.7424 251.336 22.968C251.336 22.5456 251.248 22.2288 251.072 22.0176C250.931 21.7712 250.632 21.648 250.175 21.648C249.224 21.648 248.239 22.0704 247.218 22.9152C246.232 23.76 245.299 24.8512 244.419 26.1888C243.575 27.5264 242.871 28.9344 242.307 30.4128C241.779 31.8912 241.515 33.2816 241.515 34.584C241.515 35.6752 241.779 36.6784 242.307 37.5936C242.835 38.5088 243.856 38.9664 245.37 38.9664C246.778 38.9664 248.186 38.5792 249.594 37.8048C251.037 37.0304 252.375 35.9216 253.607 34.4784C254.839 33.0352 255.824 31.3456 256.563 29.4096L257.25 29.9376C256.44 32.0496 255.331 33.9504 253.923 35.64C252.515 37.2944 250.967 38.5968 249.277 39.5472C247.587 40.4976 245.88 40.9728 244.155 40.9728ZM258.107 40.4976C257.016 40.4976 256.101 40.128 255.362 39.3888C254.587 38.6848 254.2 37.5936 254.2 36.1152C254.2 34.848 254.482 33.4928 255.045 32.0496C255.608 30.5712 256.383 29.128 257.368 27.72C258.354 26.2768 259.463 24.9744 260.695 23.8128C261.962 22.616 263.282 21.6656 264.655 20.9616C266.063 20.2576 267.453 19.9056 268.826 19.9056C270.199 19.9056 271.343 20.2752 272.258 21.0144C273.173 21.7184 273.631 22.6688 273.631 23.8656C273.631 24.7456 273.384 25.344 272.891 25.6608C272.434 25.9776 271.818 26.136 271.043 26.136C271.114 25.8544 271.167 25.5552 271.202 25.2384C271.272 24.8864 271.307 24.5696 271.307 24.288C271.307 23.4784 271.114 22.792 270.727 22.2288C270.339 21.6304 269.671 21.3312 268.72 21.3312C267.735 21.3312 266.731 21.6832 265.711 22.3872C264.69 23.056 263.704 23.9712 262.754 25.1328C261.803 26.2592 260.959 27.4912 260.219 28.8288C259.48 30.1664 258.899 31.4864 258.477 32.7888C258.055 34.0912 257.843 35.2528 257.843 36.2736C257.843 37.6464 258.319 38.3328 259.269 38.3328C260.079 38.3328 260.959 37.9632 261.909 37.224C262.859 36.4496 263.827 35.4816 264.813 34.32C265.834 33.1232 266.802 31.8912 267.717 30.624C268.632 29.3568 269.442 28.1952 270.146 27.1392C270.287 26.928 270.375 26.8224 270.41 26.8224C270.621 26.8576 270.885 26.928 271.202 27.0336C271.554 27.1392 271.853 27.28 272.099 27.456C272.346 27.632 272.469 27.8608 272.469 28.1424C272.469 28.4592 272.311 28.8992 271.994 29.4624C271.677 29.9904 271.325 30.6064 270.938 31.3104C270.551 32.0144 270.199 32.736 269.882 33.4752C269.565 34.1792 269.407 34.848 269.407 35.4816C269.407 36.0096 269.547 36.5376 269.829 37.0656C270.111 37.5584 270.568 37.8048 271.202 37.8048C272.152 37.8048 273.402 37.1184 274.951 35.7456C276.499 34.3376 278.066 32.2432 279.65 29.4624L280.178 29.9904C279.439 31.8912 278.488 33.5632 277.327 35.0064C276.165 36.4496 274.915 37.576 273.578 38.3856C272.275 39.1952 270.991 39.6 269.723 39.6C268.421 39.6 267.453 39.2128 266.819 38.4384C266.221 37.664 265.922 36.8192 265.922 35.904C265.922 35.6928 265.939 35.464 265.975 35.2176C266.01 34.936 266.045 34.6544 266.08 34.3728C264.567 36.4144 263.176 37.9456 261.909 38.9664C260.677 39.9872 259.41 40.4976 258.107 40.4976ZM281.685 39.6C281.087 39.6 280.471 39.4416 279.837 39.1248C279.239 38.8432 278.746 38.368 278.359 37.6992C277.936 37.0304 277.725 36.1856 277.725 35.1648C277.725 34.0032 278.007 32.7008 278.57 31.2576C279.133 29.8144 279.89 28.3888 280.84 26.9808C281.791 25.5376 282.882 24.2176 284.114 23.0208C285.346 21.7888 286.631 20.8208 287.968 20.1168C289.306 19.3776 290.626 19.008 291.928 19.008C292.668 19.008 293.231 19.1488 293.618 19.4304C294.04 19.6768 294.252 20.0816 294.252 20.6448C294.252 20.7856 294.234 20.9088 294.199 21.0144C294.199 21.12 294.181 21.2432 294.146 21.384C293.97 21.1024 293.706 20.9088 293.354 20.8032C293.037 20.6624 292.632 20.592 292.14 20.592C291.013 20.592 289.904 20.944 288.813 21.648C287.757 22.3168 286.772 23.2144 285.856 24.3408C284.976 25.432 284.202 26.6112 283.533 27.8784C282.864 29.1456 282.336 30.3776 281.949 31.5744C281.597 32.736 281.421 33.7216 281.421 34.5312C281.421 35.3056 281.597 35.9216 281.949 36.3792C282.301 36.8368 282.759 37.0656 283.322 37.0656C284.272 37.0656 285.416 36.4672 286.754 35.2704C288.127 34.0736 289.517 32.384 290.925 30.2016C292.333 28.0192 293.6 25.4672 294.727 22.5456C295.501 20.504 296.293 18.4272 297.103 16.3152C297.948 14.2032 298.792 12.1792 299.637 10.2432C300.482 8.272 301.292 6.5296 302.066 5.016C302.876 3.4672 303.632 2.2528 304.336 1.3728C305.076 0.457603 305.727 2.76184e-06 306.29 2.76184e-06C306.572 2.76184e-06 306.818 0.123202 307.029 0.369601C307.24 0.580803 307.346 0.862403 307.346 1.2144C307.346 1.7776 307.047 2.7456 306.448 4.1184C305.885 5.456 305.128 7.0752 304.178 8.976C303.263 10.8416 302.295 12.8832 301.274 15.1008C300.253 17.3184 299.268 19.5712 298.317 21.8592C297.402 24.1472 296.645 26.3648 296.047 28.512C295.484 30.624 295.202 32.56 295.202 34.32C295.202 35.3056 295.255 36.0448 295.36 36.5376C295.466 37.0304 295.818 37.2768 296.416 37.2768C297.156 37.2768 298.018 36.96 299.004 36.3264C299.989 35.6928 300.975 34.7952 301.96 33.6336C302.946 32.472 303.808 31.0816 304.548 29.4624L305.181 29.9376C304.512 31.7328 303.597 33.352 302.436 34.7952C301.274 36.2032 300.024 37.312 298.687 38.1216C297.384 38.9664 296.135 39.3888 294.938 39.3888C293.636 39.3888 292.72 38.9488 292.192 38.0688C291.7 37.224 291.453 36.344 291.453 35.4288C291.453 34.8304 291.541 34.0384 291.717 33.0528C291.893 32.0672 292.14 30.976 292.456 29.7792C291.33 31.6448 290.133 33.3344 288.866 34.848C287.599 36.3264 286.349 37.488 285.117 38.3328C283.92 39.1776 282.776 39.6 281.685 39.6ZM307.169 39.7056C305.656 39.7056 304.582 39.2304 303.949 38.28C303.315 37.3648 302.998 36.2384 302.998 34.9008C302.998 33.8096 303.174 32.6832 303.526 31.5216C303.878 30.36 304.336 29.2688 304.899 28.248C305.497 27.2272 306.149 26.4 306.853 25.7664C307.592 25.1328 308.331 24.816 309.07 24.816C309.246 24.816 309.422 24.8512 309.598 24.9216C309.809 24.9568 310.003 25.0096 310.179 25.08C309.862 25.3616 309.475 25.8896 309.017 26.664C308.595 27.4032 308.19 28.2656 307.803 29.2512C307.416 30.2016 307.081 31.152 306.8 32.1024C306.553 33.0528 306.43 33.8624 306.43 34.5312C306.43 35.5872 306.606 36.3616 306.958 36.8544C307.31 37.312 307.768 37.5408 308.331 37.5408C309.07 37.5408 309.95 37.1536 310.971 36.3792C311.992 35.5696 312.995 34.5488 313.981 33.3168C312.995 32.5072 312.221 31.4512 311.657 30.1488C311.129 28.8112 310.865 27.456 310.865 26.0832C310.865 24.9216 311.059 23.8304 311.446 22.8096C311.869 21.7888 312.467 20.9792 313.241 20.3808C314.016 19.7472 314.949 19.4304 316.04 19.4304C317.483 19.4304 318.451 19.8176 318.944 20.592C319.437 21.3664 319.683 22.3344 319.683 23.496C319.683 24.8688 319.349 26.4 318.68 28.0896C318.011 29.744 317.166 31.3456 316.145 32.8944C316.779 33.2464 317.448 33.4224 318.152 33.4224C318.715 33.4224 319.349 33.3168 320.053 33.1056C320.757 32.8592 321.443 32.4544 322.112 31.8912C322.816 31.328 323.379 30.5712 323.801 29.6208L324.435 30.1488C323.731 31.8032 322.728 32.9824 321.425 33.6864C320.158 34.3552 318.944 34.6896 317.782 34.6896C317.325 34.6896 316.885 34.6544 316.462 34.584C316.04 34.4784 315.635 34.3376 315.248 34.1616C314.051 35.7456 312.731 37.0656 311.288 38.1216C309.88 39.1776 308.507 39.7056 307.169 39.7056ZM314.931 31.944C315.811 30.6416 316.533 29.2864 317.096 27.8784C317.694 26.4352 317.993 25.08 317.993 23.8128C317.993 22.792 317.835 22.0528 317.518 21.5952C317.237 21.1024 316.867 20.856 316.409 20.856C315.705 20.856 314.984 21.3664 314.245 22.3872C313.505 23.408 313.136 24.6928 313.136 26.2416C313.136 27.2624 313.277 28.3008 313.558 29.3568C313.875 30.3776 314.333 31.24 314.931 31.944Z" fill="#5d4037"/>
</svg>
